HIERARCHY
ROOT root
{
  OFFSET -107.059 93.8886 28.4689
  CHANNELS 6 Xposition Yposition Zposition Zrotation Xrotation Yrotation
  JOINT lowerback
  {
    OFFSET 0 0 0
    CHANNELS 6 Xposition Yposition Zposition Zrotation Xrotation Yrotation
    JOINT upperback
    {
      OFFSET -0.0146535 10.7314 1.20016
      CHANNELS 6 Xposition Yposition Zposition Zrotation Xrotation Yrotation
      JOINT thorax
      {
        OFFSET -0.0615349 10.8421 0.200216
        CHANNELS 6 Xposition Yposition Zposition Zrotation Xrotation Yrotation
        JOINT lowerneck
        {
          OFFSET -0.0803938 10.955 -0.362586
          CHANNELS 6 Xposition Yposition Zposition Zrotation Xrotation Yrotation
          JOINT upperneck
          {
            OFFSET 0.744525 13.1821 -0.716092
            CHANNELS 6 Xposition Yposition Zposition Zrotation Xrotation Yrotation
            JOINT head
            {
              OFFSET -0.714609 12.8109 -2.75709
              CHANNELS 6 Xposition Yposition Zposition Zrotation Xrotation Yrotation
              End headSite
              {
                OFFSET -0.301711 13.3161 -0.870562
              }
            }
          }
        }
        JOINT lclavicle
        {
          OFFSET -0.0803938 10.955 -0.362586
          CHANNELS 6 Xposition Yposition Zposition Zrotation Xrotation Yrotation
          JOINT lhumerus
          {
            OFFSET 21.0494 8.71366 -1.80014
            CHANNELS 6 Xposition Yposition Zposition Zrotation Xrotation Yrotation
            JOINT lradius
            {
              OFFSET 0 -27.9395 0
              CHANNELS 6 Xposition Yposition Zposition Zrotation Xrotation Yrotation
              JOINT lwrist
              {
                OFFSET 0 -15.5821 0
                CHANNELS 6 Xposition Yposition Zposition Zrotation Xrotation Yrotation
                JOINT lhand
                {
                  OFFSET 0 -7.79103 0
                  CHANNELS 6 Xposition Yposition Zposition Zrotation Xrotation Yrotation
                  JOINT lfingers
                  {
                    OFFSET 0 -4.76355 0
                    CHANNELS 6 Xposition Yposition Zposition Zrotation Xrotation Yrotation
                    End lfingersSite
                    {
                      OFFSET 0 -3.8405 0
                    }
                  }
                }
                JOINT lthumb
                {
                  OFFSET 0 -7.79103 0
                  CHANNELS 6 Xposition Yposition Zposition Zrotation Xrotation Yrotation
                  End lthumbSite
                  {
                    OFFSET 0 -5.5142 0
                  }
                }
              }
            }
          }
        }
        JOINT rclavicle
        {
          OFFSET -0.0803938 10.955 -0.362586
          CHANNELS 6 Xposition Yposition Zposition Zrotation Xrotation Yrotation
          JOINT rhumerus
          {
            OFFSET -22.6442 7.32563 -0.641706
            CHANNELS 6 Xposition Yposition Zposition Zrotation Xrotation Yrotation
            JOINT rradius
            {
              OFFSET 0 -24.4394 0
              CHANNELS 6 Xposition Yposition Zposition Zrotation Xrotation Yrotation
              JOINT rwrist
              {
                OFFSET 0 -18.0654 0
                CHANNELS 6 Xposition Yposition Zposition Zrotation Xrotation Yrotation
                JOINT rhand
                {
                  OFFSET 0 -9.03275 0
                  CHANNELS 6 Xposition Yposition Zposition Zrotation Xrotation Yrotation
                  JOINT rfingers
                  {
                    OFFSET 0 -5.42111 0
                    CHANNELS 6 Xposition Yposition Zposition Zrotation Xrotation Yrotation
                    End rfingersSite
                    {
                      OFFSET 0 -4.37064 0
                    }
                  }
                }
                JOINT rthumb
                {
                  OFFSET 0 -9.03275 0
                  CHANNELS 6 Xposition Yposition Zposition Zrotation Xrotation Yrotation
                  End rthumbSite
                  {
                    OFFSET 0 -6.27538 0
                  }
                }
              }
            }
          }
        }
      }
    }
  }
  JOINT rfemur
  {
    OFFSET -6.87808 -8.58224 4.63091
    CHANNELS 6 Xposition Yposition Zposition Zrotation Xrotation Yrotation
    JOINT rtibia
    {
      OFFSET 1.05643e-005 -39.9586 0
      CHANNELS 6 Xposition Yposition Zposition Zrotation Xrotation Yrotation
      JOINT rfoot
      {
        OFFSET 0 -32.7363 0
        CHANNELS 6 Xposition Yposition Zposition Zrotation Xrotation Yrotation
        JOINT rtoes
        {
          OFFSET 0 -11.385 -7.56517
          CHANNELS 6 Xposition Yposition Zposition Zrotation Xrotation Yrotation
          End rtoesSite
          {
            OFFSET 0 -6.46114 0
          }
        }
      }
    }
  }
  JOINT lfemur
  {
    OFFSET 6.18079 -8.58223 4.6309
    CHANNELS 6 Xposition Yposition Zposition Zrotation Xrotation Yrotation
    JOINT ltibia
    {
      OFFSET -1.0381e-005 -39.2652 0
      CHANNELS 6 Xposition Yposition Zposition Zrotation Xrotation Yrotation
      JOINT lfoot
      {
        OFFSET -0.00334357 -31.3814 0
        CHANNELS 6 Xposition Yposition Zposition Zrotation Xrotation Yrotation
        JOINT ltoes
        {
          OFFSET 0 -9.94555 -8.16007
          CHANNELS 6 Xposition Yposition Zposition Zrotation Xrotation Yrotation
          End ltoesSite
          {
            OFFSET 0 -5.95839 0
          }
        }
      }
    }
  }
}
MOTION
Frames:	4
Frame Time:	0.00833333
-107.059 93.8886 28.4689 -9.53312 -1.89219 94.4104 0 0 0 0.19008 -13.0886 -1.61996 -0.0146535 10.7314 1.20016 -0.675886 -3.98419 -1.96409 -0.0615349 10.8421 0.200216 -1.12554 3.10943 -0.892824 -0.0803938 10.955 -0.362586 8.57049 -1.6628 1.83728 0.744525 13.1821 -0.716092 -7.54258 26.9298 4.65567 -0.714609 12.8109 -2.75709 -3.35797 8.96277 2.73261 -0.0803938 10.955 -0.362586 -5.96354e-015 0 1.11816e-014 21.0494 8.71366 -1.80014 -3.66448 10.1444 -160.651 1.08638e-009 -27.9395 6.27219e-010 -0 23.9796 0 6.05876e-010 -15.5821 3.49801e-010 9.34948e-015 -6.61758e-015 -160.582 -1.45919e-025 -7.79103 -3.4981e-010 2.62261 -32.9699 0 -1.65336e-025 -4.76355 -2.13835e-010 0 7.12502 -0 -1.45919e-025 -7.79103 -3.4981e-010 -12.4877 -6.18517 2.72691e-015 -0.0803938 10.955 -0.362586 -5.96354e-015 0 1.11816e-014 -22.6442 7.32563 -0.641706 6.50895 8.52886 153.861 -9.50233e-010 -24.4394 5.48614e-010 -0 18.0817 0 -7.02403e-010 -18.0654 4.0553e-010 3.51834e-015 -6.0824e-015 150.094 1.69176e-025 -9.03275 -4.05569e-010 3.00948 -35.6494 0 1.88163e-025 -5.42111 -2.43422e-010 0 7.12502 -0 1.69176e-025 -9.03275 -4.05569e-010 18.2117 -8.7715 -3.4852e-015 -6.87808 -8.58224 4.63091 -1.23477 -7.29683 -16.8134 1.05643e-005 -39.9586 0 -0 11.1548 0 8.65485e-006 -32.7363 0 133.031 -74.7026 132.001 2.3106e-006 -11.385 -7.56517 0 2.78299e-014 -0 6.18079 -8.58223 4.6309 4.18337 -10.0008 12.1288 -1.0381e-005 -39.2652 0 -0 10.0727 0 -0.00334357 -31.3814 0 -96.6662 -72.614 -96.3642 -2.72415e-008 -9.94555 -8.16007 0 3.81667e-014 -0 
-107.059 93.8886 28.4689 -9.53843 -1.89398 94.3887 0 0 0 0.190687 -13.0988 -1.61605 -0.0146535 10.7314 1.20016 -0.675698 -3.98739 -1.95981 -0.0615349 10.8421 0.200216 -1.1255 3.11157 -0.892825 -0.0803938 10.955 -0.362586 8.57067 -1.66225 1.84401 0.744525 13.1821 -0.716092 -7.55724 26.9414 4.67053 -0.714609 12.8109 -2.75709 -3.35797 8.96277 2.73261 -0.0803938 10.955 -0.362586 -5.96354e-015 0 1.11816e-014 21.0494 8.71366 -1.80014 -3.6576 10.1194 -160.656 1.08638e-009 -27.9395 6.27219e-010 -0 23.9642 0 6.05876e-010 -15.5821 3.49801e-010 9.3478e-015 -6.61817e-015 -160.596 -1.45919e-025 -7.79103 -3.4981e-010 2.81615 -32.8693 0 -1.65336e-025 -4.76355 -2.13835e-010 0 7.12502 -0 -1.45919e-025 -7.79103 -3.4981e-010 -12.2914 -6.08808 2.70055e-015 -0.0803938 10.955 -0.362586 -5.96354e-015 0 1.11816e-014 -22.6442 7.32563 -0.641706 6.47937 8.5236 153.964 -9.50233e-010 -24.4394 5.48614e-010 -0 18.0877 0 -7.02403e-010 -18.0654 4.0553e-010 3.51669e-015 -6.08145e-015 150.079 1.69176e-025 -9.03275 -4.05569e-010 3.01476 -35.6542 0 1.88163e-025 -5.42111 -2.43422e-010 0 7.12502 -0 1.69176e-025 -9.03275 -4.05569e-010 18.2172 -8.77614 -3.48594e-015 -6.87808 -8.58224 4.63091 -1.22601 -7.2997 -16.7835 1.05643e-005 -39.9586 0 -0 11.1438 0 8.65485e-006 -32.7363 0 133.033 -74.7145 132.005 2.3106e-006 -11.385 -7.56517 0 2.78299e-014 -0 6.18079 -8.58223 4.6309 4.1908 -10.0028 12.142 -1.0381e-005 -39.2652 0 -0 10.082 0 -0.00334357 -31.3814 0 -96.7019 -72.6143 -96.3983 -2.72415e-008 -9.94555 -8.16007 0 3.81667e-014 -0 
-107.059 93.8886 28.4689 -9.53685 -1.89381 94.3627 0 0 0 0.192082 -13.1094 -1.60861 -0.0146535 10.7314 1.20016 -0.674382 -3.96606 -1.95132 -0.0615349 10.8421 0.200216 -1.12506 3.1398 -0.892849 -0.0803938 10.955 -0.362586 8.57192 -1.69273 1.85321 0.744525 13.1821 -0.716092 -7.56859 26.9226 4.67885 -0.714609 12.8109 -2.75709 -3.36099 8.96284 2.73261 -0.0803938 10.955 -0.362586 -5.96354e-015 0 1.11816e-014 21.0494 8.71366 -1.80014 -3.65052 10.0941 -160.659 1.08638e-009 -27.9395 6.27219e-010 -0 23.9487 0 6.05876e-010 -15.5821 3.49801e-010 9.34555e-015 -6.61896e-015 -160.616 -1.45919e-025 -7.79103 -3.4981e-010 3.02095 -32.7621 0 -1.65336e-025 -4.76355 -2.13835e-010 0 7.12502 -0 -1.45919e-025 -7.79103 -3.4981e-010 -12.0837 -5.98454 2.67267e-015 -0.0803938 10.955 -0.362586 -5.96354e-015 0 1.11816e-014 -22.6442 7.32563 -0.641706 6.44967 8.51814 154.066 -9.50233e-010 -24.4394 5.48614e-010 -0 18.0931 0 -7.02403e-010 -18.0654 4.0553e-010 3.51542e-015 -6.08072e-015 150.067 1.69176e-025 -9.03275 -4.05569e-010 3.02063 -35.658 0 1.88163e-025 -5.42111 -2.43422e-010 0 7.12502 -0 1.69176e-025 -9.03275 -4.05569e-010 18.2232 -8.77982 -3.48674e-015 -6.87808 -8.58224 4.63091 -1.21659 -7.3029 -16.752 1.05643e-005 -39.9586 0 -0 11.1317 0 8.65485e-006 -32.7363 0 133.035 -74.728 132.009 2.3106e-006 -11.385 -7.56517 0 2.78299e-014 -0 6.18079 -8.58223 4.6309 4.19907 -10.0061 12.1575 -1.0381e-005 -39.2652 0 -0 10.0927 0 -0.00334357 -31.3814 0 -96.7403 -72.6121 -96.4349 -2.72415e-008 -9.94555 -8.16007 0 3.81667e-014 -0 
-107.059 93.8886 28.4689 -9.53949 -1.88753 94.3395 0 0 0 0.191547 -13.126 -1.60551 -0.0146535 10.7314 1.20016 -0.670625 -3.95317 -1.94744 -0.0615349 10.8421 0.200216 -1.12012 3.16263 -0.89095 -0.0803938 10.955 -0.362586 8.57149 -1.67099 1.8523 0.744525 13.1821 -0.716092 -7.63 26.8652 4.68073 -0.714609 12.8109 -2.75709 -3.38197 8.93957 2.73244 -0.0803938 10.955 -0.362586 -5.96354e-015 0 1.11816e-014 21.0494 8.71366 -1.80014 -3.64386 10.0695 -160.666 1.08638e-009 -27.9395 6.27219e-010 -0 23.9335 0 6.05876e-010 -15.5821 3.49801e-010 9.34445e-015 -6.61935e-015 -160.625 -1.45919e-025 -7.79103 -3.4981e-010 3.20324 -32.6682 0 -1.65336e-025 -4.76355 -2.13835e-010 0 7.12502 -0 -1.45919e-025 -7.79103 -3.4981e-010 -11.8988 -5.89391 2.64789e-015 -0.0803938 10.955 -0.362586 -5.96354e-015 0 1.11816e-014 -22.6442 7.32563 -0.641706 6.42029 8.51296 154.168 -9.50233e-010 -24.4394 5.48614e-010 -0 18.0996 0 -7.02403e-010 -18.0654 4.0553e-010 3.51338e-015 -6.07955e-015 150.047 1.69176e-025 -9.03275 -4.05569e-010 3.02533 -35.6638 0 1.88163e-025 -5.42111 -2.43422e-010 0 7.12502 -0 1.69176e-025 -9.03275 -4.05569e-010 18.2282 -8.78541 -3.48742e-015 -6.87808 -8.58224 4.63091 -1.2085 -7.30544 -16.7238 1.05643e-005 -39.9586 0 -0 11.1217 0 8.65485e-006 -32.7363 0 133.037 -74.7384 132.012 2.3106e-006 -11.385 -7.56517 0 2.78299e-014 -0 6.18079 -8.58223 4.6309 4.20568 -10.0068 12.1684 -1.0381e-005 -39.2652 0 -0 10.1007 0 -0.00334357 -31.3814 0 -96.7734 -72.615 -96.4667 -2.72415e-008 -9.94555 -8.16007 0 3.81667e-014 -0 
